<svg xmlns="http://www.w3.org/2000/svg" width="360" height="360" viewBox="0 0 360 360"><rect width="360" height="360" fill="#fff"/><rect x="25" y="25" width="85" height="85" fill="#111"/><rect x="45" y="45" width="45" height="45" fill="#fff"/><rect x="250" y="25" width="85" height="85" fill="#111"/><rect x="270" y="45" width="45" height="45" fill="#fff"/><rect x="25" y="250" width="85" height="85" fill="#111"/><rect x="45" y="270" width="45" height="45" fill="#fff"/><g fill="#111"><rect x="138" y="25" width="18" height="18"/><rect x="174" y="25" width="18" height="18"/><rect x="210" y="25" width="18" height="18"/><rect x="138" y="61" width="54" height="18"/><rect x="210" y="79" width="18" height="36"/><rect x="128" y="128" width="18" height="18"/><rect x="164" y="128" width="18" height="54"/><rect x="200" y="128" width="36" height="18"/><rect x="254" y="128" width="18" height="54"/><rect x="290" y="128" width="18" height="18"/><rect x="128" y="200" width="54" height="18"/><rect x="218" y="200" width="18" height="18"/><rect x="272" y="200" width="54" height="18"/><rect x="128" y="236" width="18" height="90"/><rect x="164" y="254" width="18" height="18"/><rect x="200" y="236" width="54" height="18"/><rect x="236" y="272" width="18" height="54"/><rect x="272" y="254" width="54" height="18"/><rect x="272" y="308" width="18" height="18"/><rect x="326" y="290" width="18" height="36"/></g><text x="180" y="352" text-anchor="middle" font-family="Arial" font-size="16" fill="#111">RL MEDIA WhatsApp</text></svg>
