<svg xmlns="http://www.w3.org/2000/svg" width="600" height="600"><rect width="600" height="600" fill="#fff"/><g fill="#000"><rect x="30" y="30" width="150" height="150"/><rect x="420" y="30" width="150" height="150"/><rect x="30" y="420" width="150" height="150"/><rect x="60" y="60" width="90" height="90" fill="#fff"/><rect x="450" y="60" width="90" height="90" fill="#fff"/><rect x="60" y="450" width="90" height="90" fill="#fff"/><rect x="90" y="90" width="30" height="30"/><rect x="480" y="90" width="30" height="30"/><rect x="90" y="480" width="30" height="30"/><rect x="220" y="40" width="30" height="30"/><rect x="280" y="40" width="30" height="30"/><rect x="340" y="40" width="30" height="30"/><rect x="220" y="100" width="30" height="30"/><rect x="310" y="100" width="30" height="30"/><rect x="370" y="100" width="30" height="30"/><rect x="220" y="170" width="70" height="30"/><rect x="350" y="170" width="30" height="30"/><rect x="60" y="220" width="30" height="30"/><rect x="130" y="220" width="30" height="30"/><rect x="220" y="220" width="120" height="30"/><rect x="420" y="220" width="30" height="30"/><rect x="510" y="220" width="30" height="30"/><rect x="30" y="290" width="70" height="30"/><rect x="160" y="290" width="30" height="30"/><rect x="250" y="290" width="30" height="30"/><rect x="330" y="290" width="30" height="30"/><rect x="400" y="290" width="90" height="30"/><rect x="540" y="290" width="30" height="30"/><rect x="90" y="350" width="30" height="30"/><rect x="190" y="350" width="90" height="30"/><rect x="310" y="350" width="30" height="30"/><rect x="390" y="350" width="30" height="30"/><rect x="480" y="350" width="60" height="30"/><rect x="220" y="420" width="30" height="30"/><rect x="280" y="420" width="60" height="30"/><rect x="390" y="420" width="30" height="30"/><rect x="480" y="420" width="30" height="30"/><rect x="220" y="480" width="90" height="30"/><rect x="360" y="480" width="30" height="30"/><rect x="420" y="480" width="90" height="30"/><rect x="540" y="480" width="30" height="30"/><rect x="220" y="540" width="30" height="30"/><rect x="310" y="540" width="60" height="30"/><rect x="450" y="540" width="30" height="30"/><rect x="510" y="540" width="60" height="30"/></g><text x="300" y="315" text-anchor="middle" font-family="Arial" font-size="30" font-weight="700" fill="#25D366">WA</text></svg>